Coordinates
version=1
nRows=21
nColumns=34
inDegrees=no

Units are S.I. units (second, meters, Newtons, ...)
If the header above contains a line with 'inDegrees', this indicates whether rotational values are in degrees (yes) or radians (no).

endheader
time	pelvis_tilt	pelvis_list	pelvis_rotation	pelvis_tx	pelvis_ty	pelvis_tz	hip_flexion_r	hip_adduction_r	hip_rotation_r	knee_angle_r	ankle_angle_r	subtalar_angle_r	mtp_angle_r	hip_flexion_l	hip_adduction_l	hip_rotation_l	knee_angle_l	ankle_angle_l	subtalar_angle_l	mtp_angle_l	lumbar_extension	lumbar_bending	lumbar_rotation	arm_flex_r	arm_add_r	arm_rot_r	elbow_flex_r	pro_sup_r	arm_flex_l	arm_add_l	arm_rot_l	elbow_flex_l	pro_sup_l
0.97	-0.119995	0.0472699	-0.0542657	1.00657	1.04924	-0.164461	0.582367	-0.0417949	-0.0535689	1.00171	0.129608	-0.273401	-0.000208843	0.20706	0.0471969	0.00349304	0.213878	0.187965	-0.0330458	-0.000242213	-0.0579071	-0.213997	-0.152719	-0.276859	-0.131255	-0.24619	0.836215	1.71903	-0.0621161	-0.321625	-0.174023	0.832251	1.63052
0.98	-0.121823	0.0441898	-0.050454	1.01689	1.04905	-0.165643	0.589169	-0.0379191	-0.0568089	0.950311	0.130151	-0.267877	-0.000208846	0.192342	0.0464218	0.00710713	0.204282	0.195821	-0.0265378	-0.000242103	-0.0561293	-0.203992	-0.158499	-0.274352	-0.129384	-0.246698	0.836963	1.72037	-0.0417259	-0.330649	-0.16814	0.849658	1.6384
0.99	-0.123782	0.0413046	-0.0466955	1.02726	1.04868	-0.166768	0.594101	-0.0342932	-0.0602625	0.894734	0.125559	-0.263957	-0.000208848	0.177733	0.0456446	0.0101502	0.19473	0.203877	-0.0193802	-0.000241992	-0.0540781	-0.194331	-0.163622	-0.272131	-0.127375	-0.247384	0.837399	1.72193	-0.0211848	-0.339893	-0.160873	0.866691	1.64594
1	-0.125713	0.0385547	-0.0429817	1.03768	1.04816	-0.167832	0.596898	-0.0308605	-0.0642215	0.835033	0.115954	-0.260665	-0.000208851	0.163058	0.0448106	0.0125843	0.185296	0.212228	-0.011483	-0.000241882	-0.0519343	-0.184967	-0.16807	-0.270201	-0.125212	-0.248366	0.837503	1.72367	-0.000477299	-0.349279	-0.152281	0.883317	1.65324
1.01	-0.127444	0.0358812	-0.0392832	1.04818	1.0475	-0.168835	0.597319	-0.0275802	-0.0689873	0.771378	0.101805	-0.256772	-0.000208853	0.148148	0.0438733	0.0144327	0.176092	0.220967	-0.00282817	-0.000241772	-0.0498901	-0.17585	-0.171865	-0.268562	-0.122881	-0.249766	0.837276	1.72554	0.0203922	-0.358709	-0.142485	0.899523	1.66036
1.02	-0.128821	0.0332347	-0.0355606	1.05876	1.04671	-0.169779	0.595197	-0.0244263	-0.0747925	0.704109	0.0839664	-0.250869	-0.000208855	0.132876	0.0427978	0.0157631	0.167273	0.230176	0.00652307	-0.000241662	-0.0481141	-0.166935	-0.175055	-0.267211	-0.120364	-0.251712	0.836734	1.72749	0.0413982	-0.368077	-0.131655	0.915315	1.66735
1.03	-0.129739	0.0305824	-0.0317744	1.06945	1.04581	-0.170667	0.5905	-0.0213808	-0.0817181	0.633792	0.063669	-0.24151	-0.000208858	0.117197	0.0415581	0.0166663	0.15905	0.239938	0.0164351	-0.000241552	-0.0467215	-0.158186	-0.177701	-0.266136	-0.117641	-0.254326	0.835897	1.72954	0.0624947	-0.377268	-0.11999	0.930713	1.67415
1.04	-0.130151	0.0279181	-0.0278922	1.08026	1.0448	-0.171507	0.583358	-0.0184223	-0.0896212	0.561259	0.0424386	-0.227402	-0.00020886	0.101171	0.0401293	0.0172344	0.151683	0.250321	0.0267112	-0.000241442	-0.0457551	-0.149566	-0.179857	-0.265318	-0.114693	-0.257727	0.834776	1.7317	0.0836174	-0.386172	-0.1077	0.945741	1.68063
1.05	-0.130063	0.0252571	-0.0238955	1.09119	1.04368	-0.172306	0.574077	-0.0155193	-0.0980908	0.487624	0.0219622	-0.20762	-0.000208863	0.08497	0.0384814	0.0175442	0.145474	0.261384	0.0371144	-0.000241332	-0.0451773	-0.141029	-0.181567	-0.264724	-0.111504	-0.262012	0.833365	1.73403	0.104687	-0.394679	-0.0949845	0.960424	1.68663
1.06	-0.129525	0.0225968	-0.0197944	1.10226	1.04246	-0.173068	0.563122	-0.012635	-0.106449	0.414274	0.00391174	-0.181806	-0.000208865	0.0688548	0.0365795	0.017646	0.14075	0.273157	0.0473902	-0.000241222	-0.0448859	-0.132529	-0.182855	-0.264312	-0.108076	-0.267238	0.831639	1.73657	0.125614	-0.402686	-0.0820257	0.974776	1.69193
1.07	-0.128625	0.0199046	-0.0156306	1.11346	1.04114	-0.173796	0.551069	-0.00972911	-0.113813	0.342835	-0.0102476	-0.150296	-0.000208867	0.0531324	0.0343813	0.0175584	0.137841	0.285634	0.0572919	-0.000241113	-0.0447492	-0.124007	-0.183722	-0.264029	-0.104437	-0.273396	0.829558	1.73938	0.146297	-0.410089	-0.0689886	0.9888	1.69639
1.08	-0.127465	0.0171221	-0.0114745	1.12479	1.03973	-0.174484	0.538549	-0.00676031	-0.119228	0.275092	-0.0194348	-0.114136	-0.00020887	0.0381075	0.0318321	0.017274	0.13705	0.298759	0.0665951	-0.000241003	-0.044635	-0.115384	-0.184147	-0.263821	-0.100653	-0.28039	0.827074	1.74243	0.166624	-0.416786	-0.0560256	1.00248	1.69994
1.09	-0.126129	0.0141637	-0.00742107	1.13626	1.03824	-0.175124	0.526189	-0.00368882	-0.12184	0.212876	-0.0230895	-0.0749786	-0.000208872	0.0240369	0.0288644	0.016771	0.138627	0.312417	0.0751054	-0.000240893	-0.044436	-0.106558	-0.18409	-0.263633	-0.0968373	-0.288017	0.824145	1.74568	0.186469	-0.42267	-0.043286	1.0158	1.70263
1.1	-0.124675	0.0109198	-0.00358137	1.14786	1.03671	-0.175704	0.514547	-0.000472808	-0.121102	0.157914	-0.0212472	-0.0348622	-0.000208875	0.0110932	0.025396	0.0160238	0.142744	0.326428	0.0826634	-0.000240784	-0.0440888	-0.097402	-0.183505	-0.263425	-0.093146	-0.295974	0.820739	1.749	0.205686	-0.427633	-0.0309232	1.02871	1.7046
1.11	-0.123121	0.00726638	-6.80348e-05	1.15958	1.03515	-0.176215	0.504052	0.00294495	-0.116931	0.111643	-0.0145409	0.00406714	-0.000208877	-0.000654433	0.0213252	0.015007	0.149486	0.340562	0.0891563	-0.000240674	-0.0435774	-0.0877642	-0.182343	-0.263175	-0.0897687	-0.303875	0.816848	1.75219	0.224108	-0.431571	-0.0190965	1.04121	1.70606
1.12	-0.121451	0.00307171	0.00302212	1.17144	1.03362	-0.176647	0.494963	0.00665216	-0.109796	0.0750354	-0.00412993	0.0398372	-0.00020888	-0.0112349	0.0165293	0.0136884	0.158846	0.354551	0.0945373	-0.000240564	-0.0429225	-0.077481	-0.18057	-0.262885	-0.0869038	-0.311307	0.812475	1.75503	0.241545	-0.434395	-0.00796735	1.05328	1.70725
1.13	-0.119623	-0.00179701	0.00562388	1.18343	1.03214	-0.176999	0.487343	0.0107761	-0.10067	0.0484509	0.00843357	0.070858	-0.000208882	-0.0207488	0.0108686	0.0120157	0.170743	0.368114	0.0988436	-0.000240455	-0.0421586	-0.0663924	-0.178178	-0.262583	-0.0847292	-0.317883	0.80763	1.75732	0.25778	-0.436039	0.00230981	1.06498	1.70837
1.14	-0.117599	-0.0074577	0.00771577	1.19558	1.03074	-0.177267	0.481072	0.0154769	-0.0908485	0.0315847	0.021387	0.0960156	-0.000208885	-0.0293222	0.00420006	0.00990865	0.185049	0.380964	0.102197	-0.000240345	-0.0413045	-0.0543659	-0.175196	-0.262307	-0.0833733	-0.323311	0.802312	1.75886	0.272577	-0.436475	0.0115963	1.07635	1.7096
1.15	-0.115369	-0.0139878	0.00931985	1.20789	1.02948	-0.17745	0.475912	0.0209204	-0.081697	0.0235734	0.0329736	0.114662	-0.000208887	-0.0370457	-0.00359833	0.00726365	0.201616	0.392798	0.104775	-0.000240236	-0.0403296	-0.0413238	-0.1717	-0.262097	-0.0828936	-0.327429	0.796487	1.75956	0.285683	-0.435719	0.0197744	1.0875	1.71105
1.16	-0.112985	-0.0214128	0.0104887	1.22039	1.02836	-0.177546	0.471597	0.0272387	-0.074383	0.0232524	0.0416842	0.126564	-0.00020889	-0.0439299	-0.012598	0.00396346	0.220321	0.403282	0.106757	-0.000240127	-0.0391506	-0.0272662	-0.167802	-0.261968	-0.0832695	-0.330231	0.790082	1.75935	0.296845	-0.433836	0.0267556	1.09857	1.71277
1.17	-0.110554	-0.0296894	0.0112776	1.23308	1.02742	-0.177551	0.467973	0.0344896	-0.0696726	0.029388	0.046483	0.131844	-0.000208892	-0.0498792	-0.0227959	-0.000100075	0.241102	0.412011	0.108266	-0.000240017	-0.0376486	-0.0122783	-0.163631	-0.261889	-0.0844094	-0.33185	0.782989	1.7583	0.305835	-0.430934	0.0324892	1.1097	1.71472
